<svg width="28.000000" height="28.000000" viewBox="0 0 28 28" fill="none" xmlns="http://www.w3.org/2000/svg" xmlns:xlink="http://www.w3.org/1999/xlink">
	<desc>
			Created with Pixso.
	</desc>
	<defs/>
	<rect id="BG" rx="4.000000" width="28.000000" height="28.000000" fill="#83D187" fill-opacity="1.000000"/>
	<path id="Vector" d="M13.63 13.57C13.63 15.86 15.5 17.72 17.79 17.72C18.59 17.72 19.35 17.49 19.99 17.09C19.7 20.4 16.93 23 13.56 23C10 23 7.1 20.1 7.1 16.54C7.1 15.15 7.53 13.83 8.35 12.72L13.56 5L16.05 8.7L14.43 11.11C13.91 11.82 13.63 12.67 13.63 13.57ZM20.26 11.69L20.29 11.73C20.68 12.26 20.89 12.9 20.89 13.57C20.89 15.28 19.5 16.67 17.79 16.67C16.08 16.67 14.69 15.28 14.69 13.57C14.69 12.9 14.9 12.26 15.29 11.73L15.32 11.69L15.32 11.68L17.79 8.02L20.25 11.68L20.26 11.69Z" fill="#DDFFDF" fill-opacity="1.000000" fill-rule="evenodd"/>
</svg>
