<svg width="28.000000" height="28.000000" viewBox="0 0 28 28" fill="none" xmlns="http://www.w3.org/2000/svg" xmlns:xlink="http://www.w3.org/1999/xlink">
	<desc>
			Created with Pixso.
	</desc>
	<defs/>
	<rect id="BG" rx="4.000000" width="28.000000" height="28.000000" fill="#83D187" fill-opacity="1.000000"/>
	<path id="Vector" d="M15.59 14.04C15.18 14.41 14.74 14.92 14.34 15.61C13.95 14.26 13.45 13.27 12.95 12.55C15.25 5.26 4.02 5 4.02 5C4.02 5 4.35 14.11 10.22 13.9C10.2 13.29 10.1 12.67 9.96 12.09C9.87 11.72 9.76 11.36 9.65 11.03C9.28 9.92 8.85 9.14 8.85 9.14C9.28 9.69 9.66 10.21 9.99 10.69C11.14 12.37 11.77 13.68 12.06 14.36C12.78 15.83 13.43 18.24 13.43 22.19C13.43 22.63 13.81 23 14.28 23C14.75 23 15.14 22.63 15.14 22.19C15.14 20.91 15.07 19.77 14.95 18.76C15.23 17.52 15.64 16.64 16.06 16.02C16.34 15.52 16.85 14.65 17.55 13.77C18.16 12.99 18.92 12.19 19.78 11.62C19.78 11.62 18.02 13.47 17.91 15.28C22.78 15.52 22.97 8.26 22.97 8.26C22.97 8.26 14.05 8.55 15.59 14.04Z" fill="#DDFFDF" fill-opacity="1.000000" fill-rule="nonzero"/>
</svg>
